<?xml version="1.0" encoding="UTF-8" standalone="no"?>
<!-- Created with Inkscape (http://www.inkscape.org/) -->

<svg
   version="1.1"
   id="svg2"
   xml:space="preserve"
   viewBox="0 0 7200 4800"
   sodipodi:docname="line.eps"
   xmlns:inkscape="http://www.inkscape.org/namespaces/inkscape"
   xmlns:sodipodi="http://sodipodi.sourceforge.net/DTD/sodipodi-0.dtd"
   xmlns="http://www.w3.org/2000/svg"
   xmlns:svg="http://www.w3.org/2000/svg"><defs
     id="defs6" /><sodipodi:namedview
     id="namedview4"
     borderopacity="1.0"
     inkscape:pageshadow="2"
     inkscape:pageopacity="0.0"
     inkscape:pagecheckerboard="0" /><g
     id="g8"
     inkscape:groupmode="layer"
     inkscape:label="ink_ext_XXXXXX"
     transform="matrix(1.3333333,0,0,-1.3333333,0,4800)"><g
       id="g10"
       transform="scale(0.1)">
       <path
         d="m 181.895,5877.6 c 370.175,-14.8 14957.705,36.5 13542.205,-176.3 -1410.4,-212.1 -8385.01,-944 -8562.73,720.3 -218.76,2047.5 -587.78,9757 810.37,10121.8 1820.73,475 7666.06,448.7 8065.16,-712.2 398.3,-1158.1 552.3,-10931.4 -62.9,-9717.5 -616.5,1216.2 1548.1,6674 -523.2,7406.1 -2066.3,730.5 -7663.17,388.3 -7535.43,1596.9 128.18,1212.8 8720.63,-291.5 7639.33,332.5 -1080.7,623.4 -4093.92,734.2 -4675.75,1343.2 -582.14,609.2 -516.75,1162.4 193.85,1580.8 712.44,419.6 4864.2,-444.5 5433.8,-307.5 877.9,211.3 1327,827.5 1541.9,914.9 289.4,117.6 1296.5,287.1 1393.4,104.3 96.7,-182.7 -1056.4,-320.4 -1012.6,-487.5 44,-167.2 1077.3,0.6 965.5,-287.3 -111.6,-287.7 -968,-210.6 -778.5,-187.7 189.7,22.8 999.6,57.5 851.8,-160.2 -147.9,-217.4 -1152.4,-150 -939.4,-183.1 213.1,-33.1 1129.1,-678.4 742.9,-613 -385.9,65.4 -840.6,325.6 -741.6,185.1 99.2,-140.6 1093.4,-594.6 741.7,-626.4 -351.2,-32 -1593,524.7 -1466.4,397.4 126.6,-127.3 1221.5,-225.5 1363.4,-546.3 141.8,-320.7 339.6,-381.1 329.6,-105.3 -10.1,275.9 250.7,2121.4 -14.3,2197.3 -265.1,75.9 -615.3,-150.8 -566.7,-13.5 48.6,137.3 536.2,180.7 536.2,180.7 0,0 2424.9,-129.6 2095.7,17.6 -329.3,147 -2396.9,350.4 -1882.6,157.4 514.5,-193.1 1955.4,-75.9 1948.7,-395.3 -6.8,-319.1 -243.7,-2553.9 -462.5,-2603 -218.9,-49 -1490.1,68.7 -1525.3,152.2 0,0 -1796.6,709.6 -2279.7,695 -482.6,-14.5 -3555.4,-716.5 -5161.2,-453.5 -1601.41,262.5 -1962.17,1530.8 -1571.87,1932.2 391.09,402 822.02,528.8 1081.73,412.3 259.76,-116.6 259.76,-116.6 259.76,-116.6 0,0 -996.59,244.9 -349.17,448.9 648.65,204.6 1547.35,595.9 1645.15,428 97.7,-167.8 800.9,-986.9 562.8,-953.2 -238,33.5 -1173,862.7 -262.3,950.7 912.6,88.3 2637.3,1356.8 2894.5,1156.6 257,-200.2 398.6,-1006.5 225.3,-753.1 -173.4,253.3 -488.7,842.6 238.7,880.7 728.6,38.2 1788.5,357.7 2067.9,518.1 279.5,160.5 792.6,594.7 812.7,482.8 20.3,-112 1586.9,-2852.6 1053.4,-2728.4 -533,124.2 -1153.1,2424 -1070.2,2896.1 0,0 11.9,195 83,472.7 l 57.8,502 c 0,0 -654.6,1274 -116.4,1207 538.8,-67.2 258.7,-650.2 546.6,-824.4 287.7,-174.2 440.6,102.8 703.3,827.1 263.3,725.9 119.7,1912.9 66,1490.6 -53.6,-421.8 177.2,-651.6 1103.3,-669.6 927.7,-18 1337.7,-26.1 1678.2,-258.6 340.5,-232.5 356.6,-755.2 377.4,-445.3 20.8,310.1 380.4,1312.8 -39.2,1603.8 -419.3,290.8 -700.9,403.4 -1147.7,694.8 -446.8,291.2 -1551,565.6 -1916.3,402.1 -365.1,-163.5 -358.9,-502.8 -358.9,-502.8 0,0 -142.4,341.8 -576.8,-74.3 -433.5,-415.3 -832,-2067.1 -576.4,-1875.7 256,191.5 766.4,1420.7 1537.2,1547.5 772.5,127.2 2565.9,-75.5 2935.3,-704.8 369.2,-628.8 143.4,-1616 -322.6,-2871.2 -464.1,-1250 -1249.9,-1678.7 -2052,-1492.3 -801.2,186 -1316.3,2102.7 -1441.8,1825.5 -125.5,-276.8 -386.1,-550.5 79.7,-1342.4 465.2,-790.9 578.6,-2522.2 1149.7,-2480.5 571.9,41.6 1113.9,2233 1173.5,1896.5 59.7,-336.1 95.5,-2817.5 227.3,-2876.4 131.8,-58.8 -1218,447.5 -1218,447.5 0,0 -325.7,-2564.7 -182.2,-3697.6 142.9,-1129.7 -659.8,-1353.5 -568.7,-1191.7 91.3,161.8 2512.2,2405.1 2699.8,2372.3 187.5,-32.9 2569,-956.7 3899.9,-1022.2 1334.2,-65.7 3412.3,297.2 2533,-95.3 -876.8,-391.2 -4338.9,-4368.8 -4672.7,-4111.9 -333.6,256.9 2511.4,3117.1 2491.1,3588.4 -20.3,472 -2064.1,5367 -2414.9,5039.8 -350.1,-326.6 -544.8,-2769.6 -351.5,-2330.8 193.8,439.4 742.3,2263.6 64.1,2726.9 -678,463.2 -2360.7,1147.6 -2360.7,1147.6 0,0 1417.4,-1179 1486.8,-1766.9 69.3,-587 -7.6,-1725.3 129.2,-1312.1 137,413.9 122.8,-2193.4 251.9,-1892.7 129.3,300.9 130.6,716.7 460.7,375 330.1,-341.3 807.6,-908.3 807.6,-908.3 0,0 -2389.1,813 -2670.6,654.8 -281.3,-158 -4469.9,-4964.1 -5024.5,-5298.9 -553.4,-334 -1100.1,-126.3 -553.4,-334 547,-208 1424.2,-264.5 1482.5,-185.1 58.4,79.4 6,-758.9 -574.6,-1090.5 -579.4,-331 -1007.2,-370 -1243.2,124.1 -236.3,494.2 -318.4,1796.3 -422,3648.2 -104,1860.5 -77.3,3388.7 -521.9,3565.8 -444.4,177 2442.3,-2118.9 1345.7,-2058.2 -1094.2,60.5 -868.4,-906.3 -307.7,-1359.9 560.4,-453.6 1560.2,-730.2 997.5,-1175.6 -561.1,-444.3 -986.2,-2191.8 -972.6,-2408.4 13.6,-216.6 -111.3,-967.5 195.5,-1166.9 306.6,-199.4 1598.9,888.9 1301,818.1 -297.5,-70.9 -1266.4,-684.6 -1305.4,-1329.5 -39,-643.5 623.3,-1526.7 1169.4,-1708 546.5,-181.6 4232,-410.2 4612.1,465.1 381.2,878.2 -2063,1797.3 -1578.3,1022.4 484.2,-774.1 913.9,-1348.5 2333.7,-1347 1424,1.7 5484.3,-61.7 5713.3,446.4 229.3,509.1 348.3,995.6 -530.4,1244.7 -877.8,248.5 -3829.3,3073.3 -5537.9,3374 -1703.9,299.9 -5270.5,-2073.5 -4366.7,-1698.6 906.4,376 4419.3,2080 4498.6,1257.1 79.1,-821.1 -1331.8,-3837.9 25.4,-3589.5 1361.7,249.4 2420.5,1203 2483.7,576 63.1,-626 320.5,-1431.2 1722.1,-1482.2 1405.4,-51.3 5304.5,981.4 6267.9,1687.5 967,708.9 -54.1,3140.2 -1997.2,3366.2 -1936.7,225.3 -6655.1,49.1 -6431.2,-231.8 223.8,-280.8 1882.3,-2717.7 2556.2,-2413.1 675.5,305.2 5191.7,2385.6 3498.2,1832.2 -1685.2,-550.7 -3391.7,-1863.2 -3162,-2062.1 229.6,-199 336.5,-584.9 1050.1,-500.4 714.7,84.5 2779.5,1302.5 3404.3,210.8 624,-1090 195.4,-1976.2 -1010.4,-2014.2 -1202.4,-37.7 -2795.6,101.8 -2437.3,170.2 358.5,68.7 1041.4,452.4 772.2,843.6 -269.3,391.3 -672.3,105.6 -269.3,391.3 403.6,286.3 2032.4,1188.8 2539.3,677.8 506.8,-510.7 877.2,-1344.7 193.2,-1675.4 -682.6,-330 -4045.3,-180.7 -3443.5,-474.2 602,-293.7 3273.7,-83.3 3078.6,-130.6 -195.1,-47.3 -3737.6,-333.5 -3589.7,-528.9 147.7,-195 6553.4,-1275.2 6553.4,-1275.2 0,0 1931.7,5897.8 2245.3,5971.6 313.9,73.7 6249,1754.7 6255.4,1530.1 6.3,-224.4 -2259.1,-5328 -2809.2,-5555.9 -549.2,-227.6 -5019.6,-1730.1 -5211.1,-1722.9 -191.6,7.3 -5742.8,796.8 -5401,1001 342.2,204.4 5127.9,825.6 5127.9,825.6 0,0 -638.4,-1574.3 -346.6,-1367.4 292.1,207.1 1777.5,5364 2209.7,5517.7 432.9,153.9 6391.7,1641.1 6391.7,1641.1 0,0 -2474.7,-5107 -2320.8,-5250.3 153.8,-143.2 13832.1,-148.8 13832.1,-148.8"
         style="fill:none;stroke:#e5e5e6da;stroke-width:70;stroke-linecap:round;stroke-linejoin:round;stroke-miterlimit:10;stroke-dasharray:none;stroke-opacity:1"
         id="path14" /></g></g></svg>
